<svg 
 xmlns="http://www.w3.org/2000/svg"
 xmlns:xlink="http://www.w3.org/1999/xlink"
 width="513px" height="513px">
<path fill-rule="evenodd"  fill="#3874cb"
 d="M241.999,1.0 C241.999,31.663 241.999,62.336 241.999,93.0 C185.603,96.243 138.997,132.881 116.0,169.999 C109.202,180.971 106.201,192.92 100.999,205.0 C90.812,230.278 88.661,274.243 98.0,302.999 C105.658,326.581 117.597,346.152 131.0,364.0 C153.86,393.412 220.815,432.565 279.0,418.999 C289.157,416.631 297.240,417.496 305.999,413.999 C363.886,390.895 414.822,345.888 419.999,270.999 C450.663,270.999 481.336,270.999 512.0,270.999 C512.878,309.347 499.620,339.688 487.999,365.999 C457.977,433.976 401.822,479.766 327.999,503.999 C294.773,514.907 232.251,515.861 195.999,506.999 C150.385,495.849 118.479,474.531 86.0,449.999 C82.0,445.667 77.999,441.332 74.0,436.999 C45.685,408.673 24.143,374.599 10.0,331.999 C6.59,320.130 4.791,309.401 3.0,295.999 C0.363,276.280 -1.581,237.77 2.0,216.999 C5.287,198.567 9.261,180.350 16.0,164.0 C41.722,101.588 85.706,51.892 147.0,25.0 C173.912,13.191 203.181,1.127 241.999,1.0 ZM271.0,1.0 C305.709,0.205 334.866,11.416 358.999,21.999 C420.410,48.932 464.215,92.457 490.999,154.0 C501.748,178.695 511.890,206.840 512.0,241.999 C481.336,241.999 450.663,241.999 419.999,241.999 C418.807,223.160 412.907,206.928 407.0,193.0 C385.674,142.720 337.513,97.350 271.0,93.0 C271.0,62.336 271.0,31.663 271.0,1.0 ZM252.0,121.0 C323.113,120.777 362.344,159.981 382.999,211.0 C394.234,238.747 393.639,281.457 381.999,308.999 C362.381,355.424 325.596,379.792 271.0,391.999 C248.678,396.990 219.338,387.635 205.999,382.0 C166.916,365.485 139.468,337.823 126.0,295.999 C123.287,287.577 124.124,280.461 122.0,270.999 C117.894,252.719 121.856,228.77 126.999,214.0 C140.765,176.327 167.862,146.201 203.999,131.0 C213.332,128.333 222.667,125.666 231.999,122.999 C237.927,121.557 246.90,121.84 252.0,121.0 ZM241.999,173.0 C241.999,180.665 241.999,188.334 241.999,196.0 C228.948,201.285 217.876,207.777 212.999,221.0 C205.479,241.393 218.776,257.231 229.999,263.0 C242.434,269.391 265.70,269.154 272.999,279.999 C276.559,284.150 274.695,289.546 271.0,292.0 C257.377,303.60 226.890,285.660 217.999,281.0 C216.208,287.702 205.922,299.616 207.999,304.999 C214.929,311.934 230.263,316.471 241.999,317.999 C241.999,325.999 241.999,334.0 241.999,342.0 C251.665,342.0 261.334,342.0 271.0,342.0 C271.0,334.334 271.0,326.665 271.0,319.0 C271.333,318.666 271.666,318.333 271.999,317.999 C303.978,315.594 316.917,271.507 290.0,254.0 C278.933,246.802 245.399,244.583 241.0,232.999 C233.966,222.783 249.699,211.883 276.0,223.0 C279.952,224.670 285.511,230.40 288.999,229.0 C293.196,224.547 298.896,213.651 300.0,207.0 C299.819,206.958 271.0,196.0 271.0,196.0 C271.0,188.334 271.0,180.665 271.0,173.0 C261.334,173.0 251.665,173.0 241.999,173.0 Z"/>
</svg>