<?xml version="1.0" standalone="no"?>
<!DOCTYPE svg PUBLIC "-//W3C//DTD SVG 20010904//EN"
 "http://www.w3.org/TR/2001/REC-SVG-20010904/DTD/svg10.dtd">
<svg version="1.0" xmlns="http://www.w3.org/2000/svg"
 width="512.000000pt" height="512.000000pt" viewBox="0 0 512.000000 512.000000"
 preserveAspectRatio="xMidYMid meet">

<g transform="translate(0.000000,512.000000) scale(0.100000,-0.100000)"
fill="#000000" stroke="none">
<path d="M2280 5109 c-293 -33 -573 -115 -845 -248 -260 -128 -475 -281 -681
-486 -404 -402 -650 -904 -736 -1500 -21 -149 -16 -522 10 -690 68 -433 231
-820 495 -1175 92 -122 365 -395 487 -487 355 -264 742 -427 1175 -495 112
-17 186 -22 370 -22 321 -1 530 32 825 130 943 314 1622 1160 1730 2156 5 54
10 102 10 108 0 7 -148 10 -459 10 l-458 0 -7 -62 c-18 -160 -81 -364 -164
-529 -300 -592 -937 -953 -1587 -899 -151 12 -207 22 -321 54 -286 80 -512
213 -724 426 -213 212 -346 438 -426 724 -106 377 -67 807 106 1158 224 453
627 773 1120 887 47 11 113 23 148 27 l62 7 0 458 0 459 -27 -1 c-16 -1 -62
-5 -103 -10z"/>
<path d="M2712 4664 l3 -459 80 -11 c177 -26 301 -63 465 -141 358 -169 624
-435 793 -793 78 -164 115 -288 141 -465 l11 -80 458 -3 459 -2 -7 67 c-52
532 -228 975 -553 1388 -71 90 -307 326 -397 397 -413 324 -853 500 -1388 554
l-67 6 2 -458z"/>
<path d="M2354 3896 c-493 -81 -907 -429 -1067 -896 -69 -201 -90 -464 -53
-670 99 -557 539 -997 1096 -1096 139 -25 355 -22 490 6 519 107 916 482 1049
990 46 175 53 429 16 600 -115 531 -522 938 -1055 1055 -101 22 -369 28 -476
11z m356 -611 c0 -89 3 -115 13 -115 40 0 287 -101 287 -117 0 -3 -27 -57 -61
-119 l-60 -114 -53 30 c-88 50 -192 81 -272 81 -107 1 -154 -28 -154 -97 0
-70 23 -84 280 -164 141 -44 194 -67 246 -107 67 -51 114 -155 114 -255 0
-170 -98 -300 -266 -351 l-74 -22 0 -112 0 -113 -150 0 -150 0 0 120 c0 115
-1 120 -21 120 -53 0 -307 102 -324 130 -3 6 22 63 56 128 l62 119 55 -34
c108 -64 240 -103 353 -103 63 0 82 4 110 23 60 40 48 116 -23 153 -17 9 -105
40 -196 70 -224 73 -291 114 -339 207 -30 61 -39 140 -24 221 23 126 98 221
219 276 l72 34 0 113 0 113 150 0 150 0 0 -115z"/>
</g>
</svg>
